<svg width="21" height="24" viewBox="0 0 21 24" fill="none" xmlns="http://www.w3.org/2000/svg">
<mask id="mask0_1208_1300" style="mask-type:alpha" maskUnits="userSpaceOnUse" x="3" y="1" width="17" height="22">
<path d="M8.56824 9.8518L19.2947 1L13.4674 8.77231H16.4674L11.1365 14.1266H13.8127L3 23L8.89198 15.2276H6.10786L11.4171 9.8518H8.56824Z" fill="#E53E52"/>
</mask>
<g mask="url(#mask0_1208_1300)">
<path fill-rule="evenodd" clip-rule="evenodd" d="M-8.02307 10.5851L-6.42556 9.62661C-4.82804 8.6681 -1.63301 5.79257 1.56202 7.70959C4.75705 9.62661 7.95209 15.3777 11.1471 17.2947C14.3421 19.2117 17.5372 18.2532 20.7322 15.3777C23.9272 12.5021 27.1223 8.6681 28.7198 5.79257L30.3173 3.87555V23.0457H28.7198C27.1223 23.0457 23.9272 23.0457 20.7322 23.0457C17.5372 23.0457 14.3421 23.0457 11.1471 23.0457C7.95209 23.0457 4.75705 23.0457 1.56202 23.0457C-1.63301 23.0457 -4.82804 23.0457 -6.42556 23.0457H-8.02307V10.5851Z" fill="#FF3F56"/>
<path d="M8.56824 9.8518L19.2947 1L13.4674 8.77231H16.4674L11.1365 14.1266H13.8127L3 23L8.89198 15.2276H6.10786L11.4171 9.8518H8.56824Z" stroke="#FF3F56" stroke-width="0.623031"/>
</g>
</svg>
